<?xml version="1.0" encoding="UTF-8"?>
<svg id="Camada_1" data-name="Camada 1" xmlns="http://www.w3.org/2000/svg" viewBox="0 0 1325 1191">
  <defs>
    <style>
      .cls-1 {
        fill: #fff;
      }

      .cls-2 {
        fill: #2563eb;
      }

      .cls-3 {
        fill: #3b82f6;
      }

      .cls-4 {
        fill: #1f2937;
      }

      .cls-5 {
        fill: #ef4444;
      }

      .cls-6 {
        fill: #6b7280;
      }

      .cls-7 {
        fill: #9ca3af;
      }

      .cls-8 {
        fill: #111827;
      }

      .cls-9 {
        fill: #10b981;
      }
    </style>
  </defs>
  <rect class="cls-1" width="1325" height="1191" rx="2" ry="2"/>
  <rect class="cls-8" width="1325" height="1191" rx="2" ry="2"/>
  <rect class="cls-4" x="95" y="535" width="1129" height="233" rx="8" ry="8"/>
  <path class="cls-1" d="M778.02,567.74c0-.36-.11-.69-.32-.98s-.6-.56-1.18-.81c-.56-.26-1.38-.49-2.44-.7-.96-.21-1.86-.47-2.69-.79-.82-.33-1.54-.72-2.14-1.18-.6-.46-1.07-1-1.41-1.62-.34-.63-.51-1.35-.51-2.16s.17-1.55,.51-2.25c.35-.7,.85-1.32,1.49-1.86,.66-.55,1.45-.98,2.39-1.28,.95-.32,2.02-.47,3.2-.47,1.65,0,3.07,.26,4.25,.79,1.2,.53,2.11,1.25,2.74,2.18,.64,.91,.97,1.96,.97,3.13h-5.06c0-.49-.11-.93-.32-1.32-.2-.4-.52-.71-.95-.93-.42-.23-.97-.35-1.65-.35-.56,0-1.05,.1-1.46,.3-.41,.19-.73,.45-.95,.77-.21,.32-.32,.67-.32,1.05,0,.29,.06,.56,.18,.79,.13,.22,.33,.43,.62,.62s.64,.36,1.09,.53c.46,.15,1.02,.29,1.69,.42,1.37,.28,2.6,.65,3.67,1.11,1.08,.45,1.93,1.05,2.57,1.83,.63,.76,.95,1.76,.95,3.01,0,.84-.19,1.62-.56,2.32s-.91,1.32-1.62,1.85c-.7,.52-1.55,.92-2.53,1.21-.97,.28-2.07,.42-3.29,.42-1.77,0-3.27-.32-4.5-.95-1.22-.63-2.14-1.44-2.78-2.41-.62-.98-.93-1.99-.93-3.02h4.8c.02,.69,.2,1.25,.53,1.67,.34,.42,.77,.73,1.28,.91,.53,.19,1.1,.28,1.71,.28,.66,0,1.2-.09,1.63-.26,.43-.19,.76-.43,.98-.74,.23-.32,.35-.68,.35-1.09Zm-26.35-4.43v.37c0,.8,.07,1.54,.21,2.23,.14,.69,.36,1.3,.67,1.83,.32,.52,.73,.92,1.23,1.21,.5,.29,1.12,.44,1.85,.44s1.31-.15,1.81-.44c.5-.29,.91-.7,1.21-1.21,.3-.53,.53-1.14,.67-1.83,.15-.69,.23-1.44,.23-2.23v-.37c0-.77-.08-1.5-.23-2.18-.14-.69-.37-1.3-.69-1.83-.3-.54-.71-.96-1.21-1.27-.5-.3-1.11-.46-1.83-.46s-1.32,.15-1.83,.46c-.49,.3-.9,.73-1.21,1.27-.3,.53-.53,1.14-.67,1.83-.14,.68-.21,1.41-.21,2.18Zm-5.06,.37v-.37c0-1.39,.2-2.68,.6-3.85,.4-1.18,.98-2.21,1.74-3.08s1.7-1.54,2.81-2.02c1.11-.49,2.39-.74,3.83-.74s2.72,.25,3.85,.74c1.12,.48,2.07,1.15,2.83,2.02,.77,.87,1.36,1.89,1.76,3.08,.4,1.17,.6,2.46,.6,3.85v.37c0,1.38-.2,2.67-.6,3.85-.4,1.17-.98,2.2-1.76,3.08-.76,.87-1.7,1.54-2.81,2.02s-2.39,.72-3.83,.72-2.72-.24-3.85-.72c-1.11-.48-2.06-1.15-2.83-2.02-.76-.88-1.34-1.9-1.74-3.08-.4-1.18-.6-2.47-.6-3.85Zm-9.88,9.67c-1.48,0-2.8-.23-3.97-.7-1.17-.48-2.17-1.14-2.99-1.99-.81-.84-1.43-1.82-1.86-2.94-.43-1.12-.65-2.32-.65-3.59v-.7c0-1.44,.21-2.76,.62-3.96,.41-1.2,1-2.23,1.76-3.11,.77-.88,1.71-1.55,2.81-2.02,1.1-.48,2.34-.72,3.73-.72s2.54,.22,3.59,.67,1.92,1.08,2.62,1.9c.71,.82,1.25,1.8,1.62,2.95,.36,1.14,.54,2.4,.54,3.8v2.11h-15.12v-3.38h10.14v-.39c0-.7-.13-1.33-.39-1.88-.25-.56-.62-1.01-1.12-1.34s-1.15-.49-1.93-.49c-.67,0-1.24,.15-1.72,.44-.48,.29-.87,.7-1.18,1.23-.29,.53-.52,1.15-.67,1.86-.14,.7-.21,1.48-.21,2.32v.7c0,.76,.11,1.46,.32,2.11,.22,.64,.53,1.2,.93,1.67,.41,.47,.9,.83,1.48,1.09,.59,.26,1.25,.39,1.99,.39,.91,0,1.76-.18,2.55-.53,.8-.36,1.48-.91,2.06-1.63l2.46,2.67c-.4,.57-.94,1.12-1.63,1.65-.68,.53-1.5,.96-2.46,1.3-.96,.33-2.06,.49-3.29,.49Zm-24.77-10v.37c0,.79,.06,1.52,.18,2.2,.13,.68,.33,1.28,.62,1.81,.29,.52,.67,.92,1.12,1.21,.47,.28,1.04,.42,1.71,.42,.87,0,1.58-.19,2.14-.58,.56-.4,.99-.94,1.28-1.63,.3-.69,.48-1.49,.53-2.39v-2.3c-.04-.74-.14-1.4-.32-1.99-.16-.6-.41-1.11-.74-1.53-.32-.42-.71-.75-1.2-.98-.47-.23-1.03-.35-1.67-.35s-1.22,.15-1.69,.46c-.47,.29-.85,.7-1.14,1.21-.28,.52-.49,1.12-.63,1.83-.13,.69-.19,1.44-.19,2.25Zm-5.06,.37v-.37c0-1.45,.16-2.77,.49-3.96,.33-1.2,.81-2.22,1.44-3.08,.63-.86,1.41-1.52,2.34-1.99,.93-.47,1.98-.7,3.16-.7,1.11,0,2.09,.23,2.92,.7,.84,.47,1.56,1.14,2.14,2,.6,.86,1.08,1.87,1.44,3.04,.36,1.16,.63,2.43,.79,3.81v.81c-.16,1.32-.43,2.55-.79,3.69-.36,1.14-.84,2.13-1.44,2.99-.59,.84-1.3,1.5-2.14,1.97s-1.83,.7-2.95,.7c-1.18,0-2.24-.24-3.16-.72-.91-.48-1.69-1.15-2.32-2.02-.62-.87-1.1-1.89-1.42-3.06s-.49-2.45-.49-3.83Zm12.02,5.13v-22.85h5.1v27h-4.59l-.51-4.15Zm-20.53-17.17l3.45-5.41h5.5l-4.83,5.41h-4.11Zm4.92,2.3v19.02h-5.08v-19.02h5.08Zm-25-6.57l6.01,20.25,.91,5.34h-3.9l-8.86-25.59h5.84Zm5.55,20.25l6.03-20.25h5.87l-8.91,25.59h-3.87l.88-5.34Zm-29.2,5.7c-1.48,0-2.8-.23-3.97-.7-1.17-.48-2.17-1.14-2.99-1.99-.81-.84-1.43-1.82-1.86-2.94-.43-1.12-.65-2.32-.65-3.59v-.7c0-1.44,.21-2.76,.62-3.96,.41-1.2,1-2.23,1.76-3.11,.77-.88,1.71-1.55,2.81-2.02,1.1-.48,2.34-.72,3.73-.72s2.54,.22,3.59,.67,1.92,1.08,2.62,1.9c.71,.82,1.25,1.8,1.62,2.95,.36,1.14,.54,2.4,.54,3.8v2.11h-15.12v-3.38h10.14v-.39c0-.7-.13-1.33-.39-1.88-.25-.56-.62-1.01-1.12-1.34s-1.15-.49-1.93-.49c-.67,0-1.24,.15-1.72,.44-.48,.29-.87,.7-1.18,1.23-.29,.53-.52,1.15-.67,1.86-.14,.7-.21,1.48-.21,2.32v.7c0,.76,.11,1.46,.32,2.11,.22,.64,.53,1.2,.93,1.67,.41,.47,.9,.83,1.48,1.09,.59,.26,1.25,.39,1.99,.39,.91,0,1.76-.18,2.55-.53,.8-.36,1.48-.91,2.06-1.63l2.46,2.67c-.4,.57-.94,1.12-1.63,1.65-.68,.53-1.5,.96-2.46,1.3-.96,.33-2.06,.49-3.29,.49Zm-24.77-10v.37c0,.79,.06,1.52,.18,2.2,.13,.68,.33,1.28,.62,1.81,.29,.52,.67,.92,1.12,1.21,.47,.28,1.04,.42,1.71,.42,.87,0,1.58-.19,2.14-.58,.56-.4,.99-.94,1.28-1.63,.3-.69,.48-1.49,.53-2.39v-2.3c-.04-.74-.14-1.4-.32-1.99-.16-.6-.41-1.11-.74-1.53-.32-.42-.71-.75-1.2-.98-.47-.23-1.03-.35-1.67-.35s-1.22,.15-1.69,.46c-.47,.29-.85,.7-1.14,1.21-.28,.52-.49,1.12-.63,1.83-.13,.69-.19,1.44-.19,2.25Zm-5.06,.37v-.37c0-1.45,.16-2.77,.49-3.96,.33-1.2,.81-2.22,1.44-3.08,.63-.86,1.41-1.52,2.34-1.99,.93-.47,1.98-.7,3.16-.7,1.11,0,2.09,.23,2.92,.7,.84,.47,1.56,1.14,2.14,2,.6,.86,1.08,1.87,1.44,3.04,.36,1.16,.63,2.43,.79,3.81v.81c-.16,1.32-.43,2.55-.79,3.69-.36,1.14-.84,2.13-1.44,2.99-.59,.84-1.3,1.5-2.14,1.97s-1.83,.7-2.95,.7c-1.18,0-2.24-.24-3.16-.72-.91-.48-1.69-1.15-2.32-2.02-.62-.87-1.1-1.89-1.42-3.06s-.49-2.45-.49-3.83Zm12.02,5.13v-22.85h5.1v27h-4.59l-.51-4.15Zm-28.53-7.44l.04,2.87h-2.83c-.67,0-1.25,.08-1.74,.23-.49,.15-.9,.37-1.21,.65-.32,.27-.55,.59-.7,.95-.14,.36-.21,.76-.21,1.2s.1,.83,.3,1.18c.2,.34,.49,.61,.86,.81,.38,.19,.81,.28,1.32,.28,.76,0,1.42-.15,1.99-.46s1-.68,1.3-1.12c.32-.45,.48-.87,.49-1.27l1.34,2.14c-.19,.48-.45,.98-.77,1.49-.32,.52-.72,1-1.21,1.46-.49,.45-1.08,.81-1.78,1.11-.69,.28-1.51,.42-2.46,.42-1.21,0-2.3-.24-3.29-.72-.97-.49-1.75-1.17-2.32-2.02-.56-.87-.84-1.85-.84-2.95,0-1,.19-1.88,.56-2.65,.38-.77,.93-1.42,1.65-1.95,.74-.54,1.66-.94,2.76-1.21,1.1-.28,2.38-.42,3.83-.42h2.94Zm-.67,7.29v-8.47c0-.61-.1-1.13-.3-1.56-.2-.45-.51-.79-.93-1.04-.41-.25-.94-.37-1.6-.37-.56,0-1.05,.1-1.46,.3-.41,.19-.73,.46-.95,.83-.22,.35-.33,.77-.33,1.25h-5.06c0-.81,.19-1.58,.56-2.3,.38-.73,.92-1.37,1.63-1.92,.71-.56,1.56-1,2.55-1.32,1-.32,2.11-.47,3.34-.47,1.48,0,2.79,.25,3.94,.74,1.15,.49,2.05,1.23,2.71,2.21,.67,.98,1,2.21,1,3.69v8.14c0,1.04,.06,1.9,.19,2.57,.13,.66,.32,1.23,.56,1.72v.3h-5.12c-.25-.52-.43-1.16-.56-1.93-.12-.79-.18-1.57-.18-2.36Zm-21.48-19.42h5.06v17.98c0,.55,.07,.97,.21,1.27,.15,.29,.38,.5,.67,.62,.29,.11,.66,.16,1.11,.16,.32,0,.6-.01,.84-.04,.26-.04,.47-.07,.65-.11l.02,3.73c-.43,.14-.9,.25-1.41,.33s-1.06,.12-1.67,.12c-1.11,0-2.09-.18-2.92-.54-.82-.38-1.45-.97-1.9-1.79s-.67-1.9-.67-3.23v-18.49Zm8.33,4.69v3.59h-11.07v-3.59h11.07Zm-17.53,13.76c0-.36-.11-.69-.32-.98s-.6-.56-1.18-.81c-.56-.26-1.38-.49-2.44-.7-.96-.21-1.86-.47-2.69-.79-.82-.33-1.54-.72-2.14-1.18-.6-.46-1.07-1-1.41-1.62-.34-.63-.51-1.35-.51-2.16s.17-1.55,.51-2.25c.35-.7,.85-1.32,1.49-1.86,.66-.55,1.45-.98,2.39-1.28,.95-.32,2.02-.47,3.2-.47,1.65,0,3.07,.26,4.25,.79,1.2,.53,2.11,1.25,2.74,2.18,.64,.91,.97,1.96,.97,3.13h-5.06c0-.49-.11-.93-.32-1.32-.2-.4-.52-.71-.95-.93-.42-.23-.97-.35-1.65-.35-.56,0-1.05,.1-1.46,.3-.41,.19-.73,.45-.95,.77-.21,.32-.32,.67-.32,1.05,0,.29,.06,.56,.18,.79,.13,.22,.33,.43,.62,.62s.64,.36,1.09,.53c.46,.15,1.02,.29,1.69,.42,1.37,.28,2.6,.65,3.67,1.11,1.08,.45,1.93,1.05,2.57,1.83,.63,.76,.95,1.76,.95,3.01,0,.84-.19,1.62-.56,2.32s-.91,1.32-1.62,1.85c-.7,.52-1.55,.92-2.53,1.21-.97,.28-2.07,.42-3.29,.42-1.77,0-3.27-.32-4.5-.95-1.22-.63-2.14-1.44-2.78-2.41-.62-.98-.93-1.99-.93-3.02h4.8c.02,.69,.2,1.25,.53,1.67,.34,.42,.77,.73,1.28,.91,.53,.19,1.1,.28,1.71,.28,.66,0,1.2-.09,1.63-.26,.43-.19,.76-.43,.98-.74,.23-.32,.35-.68,.35-1.09Zm-19.86-18.72c0-.74,.26-1.35,.77-1.83s1.21-.72,2.07-.72,1.54,.24,2.06,.72c.53,.48,.79,1.09,.79,1.83s-.26,1.35-.79,1.83c-.52,.48-1.2,.72-2.06,.72s-1.56-.24-2.07-.72-.77-1.09-.77-1.83Zm5.4,4.96v19.02h-5.08v-19.02h5.08Zm-19.23-6.57v25.59h-5.27v-25.59h5.27Zm11.18,21.48v4.11h-12.88v-4.11h12.88Z"/>
  <path class="cls-7" d="M833.75,592.59l.02,1.27h-1.83c-.51,0-.97,.04-1.38,.13-.4,.08-.74,.2-1.02,.36-.27,.16-.48,.37-.62,.62-.14,.24-.21,.52-.21,.85s.07,.63,.22,.91c.15,.27,.37,.49,.67,.65,.31,.16,.68,.23,1.12,.23,.55,0,1.04-.12,1.46-.35,.42-.23,.76-.52,1.01-.86,.25-.34,.39-.67,.41-.99l.77,.87c-.05,.27-.17,.58-.37,.91-.2,.33-.47,.65-.81,.96-.33,.3-.73,.55-1.19,.75-.46,.2-.97,.29-1.54,.29-.72,0-1.34-.14-1.88-.42-.53-.28-.95-.65-1.25-1.12-.29-.48-.44-1.01-.44-1.59s.11-1.06,.33-1.49c.22-.44,.54-.8,.96-1.08,.42-.29,.92-.51,1.5-.66,.59-.15,1.24-.22,1.96-.22h2.1Zm-.31,4.6v-5.44c0-.42-.08-.78-.25-1.08-.16-.31-.41-.55-.74-.72-.33-.17-.74-.25-1.23-.25-.46,0-.86,.08-1.2,.23-.34,.16-.61,.36-.8,.62-.19,.25-.28,.53-.28,.82h-1.81c0-.38,.1-.75,.29-1.12s.48-.71,.84-1.01c.37-.31,.81-.55,1.33-.72,.52-.18,1.1-.27,1.74-.27,.77,0,1.45,.13,2.03,.39,.59,.26,1.05,.65,1.39,1.18,.34,.52,.51,1.18,.51,1.96v4.92c0,.35,.03,.73,.09,1.12,.07,.4,.16,.74,.28,1.03v.16h-1.88c-.09-.21-.16-.48-.21-.83-.05-.35-.08-.68-.08-.98Zm-9.13-13.19v15h-1.82v-15h1.82Zm-4.93,4.43v10.57h-1.81v-10.57h1.81Zm-3.55,0v1.39h-5.63v-1.39h5.63Zm-2.16,10.57h-1.81v-11.48c0-.8,.16-1.48,.47-2.03,.31-.55,.76-.97,1.34-1.26,.58-.29,1.27-.43,2.06-.43,.47,0,.93,.06,1.38,.18,.45,.11,.91,.25,1.39,.42l-.3,1.52c-.3-.12-.65-.23-1.04-.33-.39-.11-.82-.17-1.29-.17-.77,0-1.33,.18-1.68,.53-.34,.35-.51,.87-.51,1.57v11.48Zm-11.71-6.41l.02,1.27h-1.83c-.51,0-.97,.04-1.38,.13-.4,.08-.74,.2-1.02,.36-.27,.16-.48,.37-.62,.62-.14,.24-.21,.52-.21,.85s.07,.63,.22,.91c.15,.27,.37,.49,.67,.65,.31,.16,.68,.23,1.12,.23,.55,0,1.04-.12,1.46-.35,.42-.23,.76-.52,1.01-.86,.25-.34,.39-.67,.41-.99l.77,.87c-.05,.27-.17,.58-.37,.91-.2,.33-.47,.65-.81,.96-.33,.3-.73,.55-1.19,.75-.46,.2-.97,.29-1.54,.29-.72,0-1.34-.14-1.88-.42-.53-.28-.95-.65-1.25-1.12-.29-.48-.44-1.01-.44-1.59s.11-1.06,.33-1.49c.22-.44,.54-.8,.96-1.08,.42-.29,.92-.51,1.5-.66,.59-.15,1.24-.22,1.96-.22h2.1Zm-.31,4.6v-5.44c0-.42-.08-.78-.25-1.08-.16-.31-.41-.55-.74-.72-.33-.17-.74-.25-1.23-.25-.46,0-.86,.08-1.2,.23-.34,.16-.61,.36-.8,.62-.19,.25-.28,.53-.28,.82h-1.81c0-.38,.1-.75,.29-1.12s.48-.71,.84-1.01c.37-.31,.81-.55,1.33-.72,.52-.18,1.1-.27,1.74-.27,.77,0,1.45,.13,2.03,.39,.59,.26,1.05,.65,1.39,1.18,.34,.52,.51,1.18,.51,1.96v4.92c0,.35,.03,.73,.09,1.12,.07,.4,.16,.74,.28,1.03v.16h-1.88c-.09-.21-.16-.48-.21-.83-.05-.35-.08-.68-.08-.98Zm-15.91-3.88l-.75-.03c0-.72,.11-1.39,.32-2,.21-.62,.5-1.16,.88-1.61,.38-.46,.83-.81,1.35-1.05,.53-.25,1.11-.38,1.75-.38,.52,0,.99,.07,1.41,.21,.42,.14,.77,.36,1.06,.66,.3,.31,.53,.7,.68,1.19,.16,.48,.23,1.07,.23,1.77v6.92h-1.82v-6.94c0-.55-.08-1-.24-1.33-.16-.34-.4-.58-.71-.73-.31-.16-.7-.23-1.15-.23s-.86,.09-1.23,.28c-.36,.19-.68,.45-.95,.78-.26,.33-.47,.71-.62,1.14-.14,.42-.21,.87-.21,1.35Zm.43-2.63v8.31h-1.81v-10.57h1.71l.1,2.26Zm-8.44-2.31v1.68c-.16-.03-.3-.05-.44-.06-.13-.01-.28-.02-.45-.02-.42,0-.78,.07-1.1,.2-.32,.13-.59,.31-.81,.55-.22,.23-.4,.51-.53,.84-.12,.32-.21,.67-.24,1.05l-.51,.29c0-.64,.06-1.24,.19-1.8,.13-.56,.33-1.05,.6-1.48,.27-.44,.61-.77,1.02-1.02,.42-.25,.91-.37,1.48-.37,.13,0,.28,.02,.45,.05,.17,.03,.29,.06,.35,.09Zm-3.3,1.72v8.91h-1.81v-10.57h1.76l.05,1.66Zm-6.14,2.5l.02,1.27h-1.83c-.51,0-.97,.04-1.38,.13-.4,.08-.74,.2-1.02,.36-.27,.16-.48,.37-.62,.62-.14,.24-.21,.52-.21,.85s.07,.63,.22,.91c.15,.27,.37,.49,.67,.65,.31,.16,.68,.23,1.12,.23,.55,0,1.04-.12,1.46-.35,.42-.23,.76-.52,1.01-.86,.25-.34,.39-.67,.41-.99l.77,.87c-.05,.27-.17,.58-.37,.91-.2,.33-.47,.65-.81,.96-.33,.3-.73,.55-1.19,.75-.46,.2-.97,.29-1.54,.29-.72,0-1.34-.14-1.88-.42-.53-.28-.95-.65-1.25-1.12-.29-.48-.44-1.01-.44-1.59s.11-1.06,.33-1.49c.22-.44,.54-.8,.96-1.08,.42-.29,.92-.51,1.5-.66,.59-.15,1.24-.22,1.96-.22h2.1Zm-.31,4.6v-5.44c0-.42-.08-.78-.25-1.08-.16-.31-.41-.55-.74-.72-.33-.17-.74-.25-1.23-.25-.46,0-.86,.08-1.2,.23-.34,.16-.61,.36-.8,.62-.19,.25-.28,.53-.28,.82h-1.81c0-.38,.1-.75,.29-1.12s.48-.71,.84-1.01c.37-.31,.81-.55,1.33-.72,.52-.18,1.1-.27,1.74-.27,.77,0,1.45,.13,2.03,.39,.59,.26,1.05,.65,1.39,1.18,.34,.52,.51,1.18,.51,1.96v4.92c0,.35,.03,.73,.09,1.12,.07,.4,.16,.74,.28,1.03v.16h-1.88c-.09-.21-.16-.48-.21-.83-.05-.35-.08-.68-.08-.98Zm-15.91-3.88l-.75-.03c0-.72,.11-1.39,.32-2,.21-.62,.5-1.16,.88-1.61,.38-.46,.83-.81,1.35-1.05,.53-.25,1.11-.38,1.75-.38,.52,0,.99,.07,1.41,.21,.42,.14,.77,.36,1.06,.66,.3,.31,.53,.7,.68,1.19,.16,.48,.23,1.07,.23,1.77v6.92h-1.82v-6.94c0-.55-.08-1-.24-1.33-.16-.34-.4-.58-.71-.73-.31-.16-.7-.23-1.15-.23s-.86,.09-1.23,.28c-.36,.19-.68,.45-.95,.78-.26,.33-.47,.71-.62,1.14-.14,.42-.21,.87-.21,1.35Zm.43-2.63v8.31h-1.81v-10.57h1.71l.1,2.26Zm-11.88,2.92v.22c0,.53,.06,1.03,.19,1.49,.12,.46,.31,.87,.56,1.23,.25,.36,.57,.64,.95,.85,.38,.2,.82,.3,1.32,.3s.93-.1,1.3-.3c.38-.21,.69-.49,.94-.85,.25-.36,.43-.77,.56-1.23,.13-.47,.2-.97,.2-1.49v-.22c0-.52-.07-1.01-.2-1.47-.12-.47-.31-.88-.57-1.24-.25-.36-.56-.65-.94-.86-.37-.21-.81-.31-1.31-.31s-.93,.1-1.31,.31c-.37,.21-.68,.49-.94,.86-.25,.36-.43,.77-.56,1.24-.12,.46-.19,.95-.19,1.47Zm-1.81,.22v-.22c0-.76,.11-1.47,.33-2.12,.22-.66,.54-1.23,.96-1.71,.42-.49,.92-.87,1.51-1.13,.59-.27,1.26-.41,1.99-.41s1.41,.14,2,.41c.6,.27,1.11,.64,1.52,1.13,.42,.48,.75,1.05,.97,1.71,.22,.65,.33,1.36,.33,2.12v.22c0,.76-.11,1.47-.33,2.12-.22,.65-.54,1.22-.97,1.71-.42,.48-.92,.86-1.51,1.13-.59,.27-1.25,.4-1.99,.4s-1.41-.13-2-.4c-.59-.27-1.1-.65-1.52-1.13-.42-.49-.74-1.06-.96-1.71-.22-.65-.33-1.36-.33-2.12Zm-4.38-8.2c0-.29,.09-.54,.26-.74,.18-.2,.45-.3,.8-.3s.61,.1,.79,.3c.19,.2,.28,.45,.28,.74s-.09,.52-.28,.72c-.18,.2-.45,.29-.79,.29s-.62-.1-.8-.29c-.18-.2-.26-.44-.26-.72Zm1.95,2.8v10.57h-1.82v-10.57h1.82Zm-8.2,9.28c.43,0,.83-.09,1.19-.26,.36-.18,.66-.42,.9-.72,.23-.31,.37-.67,.4-1.06h1.72c-.03,.62-.24,1.21-.63,1.75-.38,.53-.89,.97-1.51,1.3-.62,.33-1.31,.49-2.06,.49-.79,0-1.49-.14-2.08-.42-.59-.28-1.07-.66-1.46-1.15-.38-.49-.67-1.05-.87-1.68-.19-.64-.28-1.31-.28-2.02v-.41c0-.71,.09-1.38,.28-2.01,.2-.64,.48-1.2,.87-1.69,.39-.49,.88-.87,1.46-1.15,.59-.28,1.29-.42,2.08-.42s1.55,.17,2.17,.51c.62,.33,1.1,.79,1.46,1.37,.36,.57,.55,1.22,.59,1.95h-1.72c-.03-.44-.16-.83-.37-1.18-.21-.35-.49-.63-.86-.84-.36-.21-.78-.32-1.26-.32-.55,0-1.02,.11-1.4,.33-.37,.21-.67,.51-.89,.88-.21,.36-.37,.77-.47,1.22-.09,.44-.14,.9-.14,1.36v.41c0,.46,.05,.92,.14,1.37,.09,.45,.24,.86,.46,1.22,.22,.36,.52,.66,.89,.88,.38,.21,.85,.32,1.41,.32Zm-9.08-12.08c0-.29,.09-.54,.26-.74,.18-.2,.45-.3,.8-.3s.61,.1,.79,.3c.19,.2,.28,.45,.28,.74s-.09,.52-.28,.72c-.18,.2-.45,.29-.79,.29s-.62-.1-.8-.29c-.18-.2-.26-.44-.26-.72Zm1.95,2.8v10.57h-1.82v-10.57h1.82Zm-11.88,5.2v.21c0,.53,.05,1.02,.16,1.48,.11,.46,.28,.87,.51,1.22,.23,.35,.52,.63,.87,.83,.35,.2,.77,.29,1.26,.29,.6,0,1.09-.13,1.47-.38,.39-.25,.7-.59,.94-1.01,.23-.42,.42-.87,.55-1.36v-2.35c-.08-.36-.19-.7-.34-1.04-.14-.34-.33-.64-.57-.9-.23-.27-.51-.48-.85-.63-.33-.16-.73-.23-1.18-.23-.49,0-.92,.1-1.28,.31-.35,.2-.64,.48-.87,.84-.23,.35-.4,.76-.51,1.23-.1,.46-.16,.96-.16,1.48Zm-1.82,.21v-.21c0-.81,.1-1.54,.29-2.2,.2-.66,.48-1.23,.85-1.71,.37-.48,.81-.84,1.32-1.09,.51-.26,1.09-.39,1.72-.39,.66,0,1.24,.12,1.74,.35,.5,.23,.92,.56,1.27,1.01,.35,.44,.63,.96,.83,1.58,.2,.62,.34,1.32,.42,2.1v.9c-.07,.77-.21,1.47-.42,2.09-.2,.62-.48,1.15-.83,1.58-.35,.44-.77,.77-1.27,1.01-.5,.23-1.09,.34-1.76,.34-.62,0-1.18-.13-1.7-.4-.51-.27-.95-.64-1.32-1.12-.36-.48-.65-1.05-.85-1.7-.2-.66-.29-1.37-.29-2.14Zm7.11,3.12v-12.95h1.82v15h-1.66l-.16-2.05Zm-11-4.36l.02,1.27h-1.83c-.51,0-.97,.04-1.38,.13-.4,.08-.74,.2-1.02,.36-.27,.16-.48,.37-.62,.62-.14,.24-.21,.52-.21,.85s.07,.63,.22,.91c.15,.27,.37,.49,.67,.65,.31,.16,.68,.23,1.12,.23,.55,0,1.04-.12,1.46-.35,.42-.23,.76-.52,1.01-.86,.25-.34,.39-.67,.41-.99l.77,.87c-.05,.27-.17,.58-.37,.91-.2,.33-.47,.65-.81,.96-.33,.3-.73,.55-1.19,.75-.46,.2-.97,.29-1.54,.29-.72,0-1.34-.14-1.88-.42-.53-.28-.95-.65-1.25-1.12-.29-.48-.44-1.01-.44-1.59s.11-1.06,.33-1.49c.22-.44,.54-.8,.96-1.08,.42-.29,.92-.51,1.5-.66,.59-.15,1.24-.22,1.96-.22h2.1Zm-.31,4.6v-5.44c0-.42-.08-.78-.25-1.08-.16-.31-.41-.55-.74-.72-.33-.17-.74-.25-1.23-.25-.46,0-.86,.08-1.2,.23-.34,.16-.61,.36-.8,.62-.19,.25-.28,.53-.28,.82h-1.81c0-.38,.1-.75,.29-1.12s.48-.71,.84-1.01c.37-.31,.81-.55,1.33-.72,.52-.18,1.1-.27,1.74-.27,.77,0,1.45,.13,2.03,.39,.59,.26,1.05,.65,1.39,1.18,.34,.52,.51,1.18,.51,1.96v4.92c0,.35,.03,.73,.09,1.12,.07,.4,.16,.74,.28,1.03v.16h-1.88c-.09-.21-.16-.48-.21-.83-.05-.35-.08-.68-.08-.98Zm-15.53-4.6l.02,1.27h-1.83c-.51,0-.97,.04-1.38,.13-.4,.08-.74,.2-1.02,.36-.27,.16-.48,.37-.62,.62-.14,.24-.21,.52-.21,.85s.07,.63,.22,.91c.15,.27,.37,.49,.67,.65,.31,.16,.68,.23,1.12,.23,.55,0,1.04-.12,1.46-.35,.42-.23,.76-.52,1.01-.86,.25-.34,.39-.67,.41-.99l.77,.87c-.05,.27-.17,.58-.37,.91-.2,.33-.47,.65-.81,.96-.33,.3-.73,.55-1.19,.75-.46,.2-.97,.29-1.54,.29-.72,0-1.34-.14-1.88-.42-.53-.28-.95-.65-1.25-1.12-.29-.48-.44-1.01-.44-1.59s.11-1.06,.33-1.49c.22-.44,.54-.8,.96-1.08,.42-.29,.92-.51,1.5-.66,.59-.15,1.24-.22,1.96-.22h2.1Zm-.31,4.6v-5.44c0-.42-.08-.78-.25-1.08-.16-.31-.41-.55-.74-.72-.33-.17-.74-.25-1.23-.25-.46,0-.86,.08-1.2,.23-.34,.16-.61,.36-.8,.62-.19,.25-.28,.53-.28,.82h-1.81c0-.38,.1-.75,.29-1.12s.48-.71,.84-1.01c.37-.31,.81-.55,1.33-.72,.52-.18,1.1-.27,1.74-.27,.77,0,1.45,.13,2.03,.39,.59,.26,1.05,.65,1.39,1.18,.34,.52,.51,1.18,.51,1.96v4.92c0,.35,.03,.73,.09,1.12,.07,.4,.16,.74,.28,1.03v.16h-1.88c-.09-.21-.16-.48-.21-.83-.05-.35-.08-.68-.08-.98Zm-7.51-8.82v1.68c-.16-.03-.3-.05-.44-.06-.13-.01-.28-.02-.45-.02-.42,0-.78,.07-1.1,.2-.32,.13-.59,.31-.81,.55-.22,.23-.4,.51-.53,.84-.12,.32-.21,.67-.24,1.05l-.51,.29c0-.64,.06-1.24,.19-1.8,.13-.56,.33-1.05,.6-1.48,.27-.44,.61-.77,1.02-1.02,.42-.25,.91-.37,1.48-.37,.13,0,.28,.02,.45,.05,.17,.03,.29,.06,.35,.09Zm-3.3,1.72v8.91h-1.81v-10.57h1.76l.05,1.66Zm-6.14,2.5l.02,1.27h-1.83c-.51,0-.97,.04-1.38,.13-.4,.08-.74,.2-1.02,.36-.27,.16-.48,.37-.62,.62-.14,.24-.21,.52-.21,.85s.07,.63,.22,.91c.15,.27,.37,.49,.67,.65,.31,.16,.68,.23,1.12,.23,.55,0,1.04-.12,1.46-.35,.42-.23,.76-.52,1.01-.86,.25-.34,.39-.67,.41-.99l.77,.87c-.05,.27-.17,.58-.37,.91-.2,.33-.47,.65-.81,.96-.33,.3-.73,.55-1.19,.75-.46,.2-.97,.29-1.54,.29-.72,0-1.34-.14-1.88-.42-.53-.28-.95-.65-1.25-1.12-.29-.48-.44-1.01-.44-1.59s.11-1.06,.33-1.49c.22-.44,.54-.8,.96-1.08,.42-.29,.92-.51,1.5-.66,.59-.15,1.24-.22,1.96-.22h2.1Zm-.31,4.6v-5.44c0-.42-.08-.78-.25-1.08-.16-.31-.41-.55-.74-.72-.33-.17-.74-.25-1.23-.25-.46,0-.86,.08-1.2,.23-.34,.16-.61,.36-.8,.62-.19,.25-.28,.53-.28,.82h-1.81c0-.38,.1-.75,.29-1.12s.48-.71,.84-1.01c.37-.31,.81-.55,1.33-.72,.52-.18,1.1-.27,1.74-.27,.77,0,1.45,.13,2.03,.39,.59,.26,1.05,.65,1.39,1.18,.34,.52,.51,1.18,.51,1.96v4.92c0,.35,.03,.73,.09,1.12,.07,.4,.16,.74,.28,1.03v.16h-1.88c-.09-.21-.16-.48-.21-.83-.05-.35-.08-.68-.08-.98Zm-10.35-3.36v-.21c0-.53-.06-1.02-.17-1.48-.11-.47-.28-.88-.52-1.23-.23-.36-.52-.64-.88-.84-.36-.21-.78-.31-1.28-.31-.46,0-.85,.08-1.19,.23-.33,.16-.62,.37-.85,.63-.23,.26-.43,.56-.58,.9-.14,.33-.25,.68-.32,1.04v2.53c.13,.46,.31,.89,.55,1.29,.23,.4,.55,.72,.94,.97,.39,.24,.88,.36,1.47,.36,.49,0,.91-.1,1.26-.3,.36-.21,.65-.49,.88-.85,.23-.36,.41-.77,.52-1.23,.11-.47,.17-.97,.17-1.49Zm1.82-.21v.21c0,.77-.09,1.48-.27,2.14-.18,.65-.45,1.22-.8,1.7-.35,.48-.77,.86-1.28,1.12-.51,.27-1.09,.4-1.75,.4s-1.26-.11-1.78-.33c-.51-.22-.95-.54-1.31-.97-.36-.42-.64-.93-.86-1.52-.21-.59-.35-1.26-.43-2v-1.09c.08-.78,.22-1.48,.44-2.1,.21-.62,.5-1.15,.85-1.58,.36-.44,.79-.78,1.3-1.01,.51-.23,1.09-.35,1.76-.35s1.25,.13,1.77,.39c.51,.25,.95,.62,1.3,1.09,.35,.48,.62,1.04,.79,1.71,.18,.66,.27,1.39,.27,2.2Zm-7.12-3.16v12.6h-1.82v-14.63h1.66l.16,2.03Zm-11.62-4.83c0-.29,.09-.54,.26-.74,.18-.2,.45-.3,.8-.3s.61,.1,.79,.3c.19,.2,.28,.45,.28,.74s-.09,.52-.28,.72c-.18,.2-.45,.29-.79,.29s-.62-.1-.8-.29c-.18-.2-.26-.44-.26-.72Zm1.95,2.8v10.57h-1.82v-10.57h1.82Zm-6.19,5.9l.75-.02c0,.7-.07,1.35-.22,1.95-.14,.59-.38,1.11-.7,1.54-.33,.44-.75,.78-1.28,1.03-.53,.24-1.17,.36-1.92,.36-.51,0-.99-.07-1.42-.22-.42-.15-.79-.38-1.09-.69-.31-.31-.54-.72-.71-1.22-.16-.5-.24-1.1-.24-1.81v-6.82h1.81v6.84c0,.48,.05,.87,.16,1.18,.11,.31,.26,.55,.44,.73,.19,.18,.4,.3,.62,.37,.23,.07,.48,.11,.72,.11,.77,0,1.38-.15,1.83-.44,.45-.3,.77-.7,.97-1.2,.2-.51,.3-1.07,.3-1.69Zm-.34,2.23v-8.12h1.82v10.57h-1.73l-.09-2.44Zm-16.46-2.93v.21c0,.53,.06,1.03,.17,1.49,.11,.46,.28,.87,.51,1.23,.23,.36,.53,.64,.88,.85,.36,.2,.78,.3,1.27,.3,.6,0,1.1-.13,1.49-.39,.4-.26,.73-.6,.97-1.03,.24-.43,.43-.89,.56-1.38v-2.35c-.07-.36-.19-.71-.34-1.04-.15-.34-.35-.64-.59-.91-.24-.27-.53-.49-.88-.64-.34-.16-.74-.24-1.19-.24-.49,0-.92,.1-1.28,.31-.36,.21-.65,.49-.89,.86-.23,.36-.4,.77-.51,1.24-.11,.47-.17,.97-.17,1.49Zm-1.82,.21v-.21c0-.81,.09-1.54,.28-2.2,.19-.66,.47-1.23,.83-1.71,.36-.48,.8-.84,1.32-1.09,.52-.26,1.11-.39,1.78-.39s1.25,.12,1.75,.35c.51,.23,.94,.56,1.29,1.01,.36,.44,.64,.96,.85,1.58,.21,.62,.35,1.32,.43,2.1v.9c-.07,.77-.21,1.47-.42,2.09-.21,.62-.49,1.15-.85,1.58-.35,.44-.78,.77-1.3,1.01-.51,.23-1.1,.34-1.77,.34s-1.24-.13-1.76-.4c-.51-.27-.95-.64-1.32-1.12-.36-.48-.63-1.05-.83-1.7-.19-.66-.28-1.37-.28-2.14Zm7.1,9.23v-12.6l.16-2.03h1.66v14.63h-1.82Zm-10.99-10.47l.02,1.27h-1.83c-.51,0-.97,.04-1.38,.13-.4,.08-.74,.2-1.02,.36-.27,.16-.48,.37-.62,.62-.14,.24-.21,.52-.21,.85s.07,.63,.22,.91c.15,.27,.37,.49,.67,.65,.31,.16,.68,.23,1.12,.23,.55,0,1.04-.12,1.46-.35,.42-.23,.76-.52,1.01-.86,.25-.34,.39-.67,.41-.99l.77,.87c-.05,.27-.17,.58-.37,.91-.2,.33-.47,.65-.81,.96-.33,.3-.73,.55-1.19,.75-.46,.2-.97,.29-1.54,.29-.72,0-1.34-.14-1.88-.42-.53-.28-.95-.65-1.25-1.12-.29-.48-.44-1.01-.44-1.59s.11-1.06,.33-1.49c.22-.44,.54-.8,.96-1.08,.42-.29,.92-.51,1.5-.66,.59-.15,1.24-.22,1.96-.22h2.1Zm-.31,4.6v-5.44c0-.42-.08-.78-.25-1.08-.16-.31-.41-.55-.74-.72-.33-.17-.74-.25-1.23-.25-.46,0-.86,.08-1.2,.23-.34,.16-.61,.36-.8,.62-.19,.25-.28,.53-.28,.82h-1.81c0-.38,.1-.75,.29-1.12s.48-.71,.84-1.01c.37-.31,.81-.55,1.33-.72,.52-.18,1.1-.27,1.74-.27,.77,0,1.45,.13,2.03,.39,.59,.26,1.05,.65,1.39,1.18,.34,.52,.51,1.18,.51,1.96v4.92c0,.35,.03,.73,.09,1.12,.07,.4,.16,.74,.28,1.03v.16h-1.88c-.09-.21-.16-.48-.21-.83-.05-.35-.08-.68-.08-.98Zm-21.27-3.58v.22c0,.53,.06,1.03,.19,1.49,.12,.46,.31,.87,.56,1.23,.25,.36,.57,.64,.95,.85,.38,.2,.82,.3,1.32,.3s.93-.1,1.3-.3c.38-.21,.69-.49,.94-.85,.25-.36,.43-.77,.56-1.23,.13-.47,.2-.97,.2-1.49v-.22c0-.52-.07-1.01-.2-1.47-.12-.47-.31-.88-.57-1.24-.25-.36-.56-.65-.94-.86-.37-.21-.81-.31-1.31-.31s-.93,.1-1.31,.31c-.37,.21-.68,.49-.94,.86-.25,.36-.43,.77-.56,1.24-.12,.46-.19,.95-.19,1.47Zm-1.81,.22v-.22c0-.76,.11-1.47,.33-2.12,.22-.66,.54-1.23,.96-1.71,.42-.49,.92-.87,1.51-1.13,.59-.27,1.26-.41,1.99-.41s1.41,.14,2,.41c.6,.27,1.11,.64,1.52,1.13,.42,.48,.75,1.05,.97,1.71,.22,.65,.33,1.36,.33,2.12v.22c0,.76-.11,1.47-.33,2.12-.22,.65-.54,1.22-.97,1.71-.42,.48-.92,.86-1.51,1.13-.59,.27-1.25,.4-1.99,.4s-1.41-.13-2-.4c-.59-.27-1.1-.65-1.52-1.13-.42-.49-.74-1.06-.96-1.71-.22-.65-.33-1.36-.33-2.12Zm-5.74,5.36c-.74,0-1.4-.12-2-.37-.59-.25-1.1-.61-1.53-1.06-.42-.46-.75-1-.98-1.62-.23-.62-.34-1.31-.34-2.05v-.41c0-.86,.13-1.62,.38-2.29,.25-.68,.6-1.25,1.04-1.72,.44-.47,.93-.82,1.48-1.06,.55-.24,1.13-.36,1.72-.36,.76,0,1.41,.13,1.95,.39,.55,.26,1.01,.62,1.36,1.09,.35,.46,.61,1.01,.78,1.64,.17,.62,.25,1.31,.25,2.05v.81h-7.89v-1.47h6.08v-.14c-.03-.47-.12-.92-.29-1.37-.16-.44-.42-.81-.78-1.09-.36-.29-.85-.43-1.46-.43-.41,0-.79,.09-1.13,.26-.35,.17-.64,.42-.89,.76-.25,.34-.44,.75-.58,1.24-.14,.49-.21,1.05-.21,1.69v.41c0,.5,.07,.97,.21,1.42,.14,.44,.35,.82,.62,1.15,.27,.33,.6,.59,.99,.78,.39,.19,.83,.28,1.33,.28,.64,0,1.18-.13,1.62-.39,.44-.26,.83-.61,1.16-1.04l1.09,.87c-.23,.35-.52,.67-.87,.99s-.78,.57-1.3,.76c-.51,.2-1.11,.29-1.81,.29Zm-14.31-5.57v.21c0,.53,.05,1.02,.16,1.48,.11,.46,.28,.87,.51,1.22,.23,.35,.52,.63,.87,.83,.35,.2,.77,.29,1.26,.29,.6,0,1.09-.13,1.47-.38,.39-.25,.7-.59,.94-1.01,.23-.42,.42-.87,.55-1.36v-2.35c-.08-.36-.19-.7-.34-1.04-.14-.34-.33-.64-.57-.9-.23-.27-.51-.48-.85-.63-.33-.16-.73-.23-1.18-.23-.49,0-.92,.1-1.28,.31-.35,.2-.64,.48-.87,.84-.23,.35-.4,.76-.51,1.23-.1,.46-.16,.96-.16,1.48Zm-1.82,.21v-.21c0-.81,.1-1.54,.29-2.2,.2-.66,.48-1.23,.85-1.71,.37-.48,.81-.84,1.32-1.09,.51-.26,1.09-.39,1.72-.39,.66,0,1.24,.12,1.74,.35,.5,.23,.92,.56,1.27,1.01,.35,.44,.63,.96,.83,1.58,.2,.62,.34,1.32,.42,2.1v.9c-.07,.77-.21,1.47-.42,2.09-.2,.62-.48,1.15-.83,1.58-.35,.44-.77,.77-1.27,1.01-.5,.23-1.09,.34-1.76,.34-.62,0-1.18-.13-1.7-.4-.51-.27-.95-.64-1.32-1.12-.36-.48-.65-1.05-.85-1.7-.2-.66-.29-1.37-.29-2.14Zm7.11,3.12v-12.95h1.82v15h-1.66l-.16-2.05Zm-11.53-10.06l1.89-2.87h2.18l-2.62,2.87h-1.46Zm1.87,1.54v10.57h-1.81v-10.57h1.81Zm-10.84,0l2.98,8.98,.21,1.58h-1.21l-3.83-10.57h1.86Zm2.41,8.94l2.89-8.94h1.85l-3.8,10.57h-1.21l.27-1.63Zm-18.25-3.76v.22c0,.53,.06,1.03,.19,1.49,.12,.46,.31,.87,.56,1.23,.25,.36,.57,.64,.95,.85,.38,.2,.82,.3,1.32,.3s.93-.1,1.3-.3c.38-.21,.69-.49,.94-.85,.25-.36,.43-.77,.56-1.23,.13-.47,.2-.97,.2-1.49v-.22c0-.52-.07-1.01-.2-1.47-.12-.47-.31-.88-.57-1.24-.25-.36-.56-.65-.94-.86-.37-.21-.81-.31-1.31-.31s-.93,.1-1.31,.31c-.37,.21-.68,.49-.94,.86-.25,.36-.43,.77-.56,1.24-.12,.46-.19,.95-.19,1.47Zm-1.81,.22v-.22c0-.76,.11-1.47,.33-2.12,.22-.66,.54-1.23,.96-1.71,.42-.49,.92-.87,1.51-1.13,.59-.27,1.26-.41,1.99-.41s1.41,.14,2,.41c.6,.27,1.11,.64,1.52,1.13,.42,.48,.75,1.05,.97,1.71,.22,.65,.33,1.36,.33,2.12v.22c0,.76-.11,1.47-.33,2.12-.22,.65-.54,1.22-.97,1.71-.42,.48-.92,.86-1.51,1.13-.59,.27-1.25,.4-1.99,.4s-1.41-.13-2-.4c-.59-.27-1.1-.65-1.52-1.13-.42-.49-.74-1.06-.96-1.71-.22-.65-.33-1.36-.33-2.12Zm-10.7,5.36c-.74,0-1.4-.12-2-.37-.59-.25-1.1-.61-1.53-1.06-.42-.46-.75-1-.98-1.62-.23-.62-.34-1.31-.34-2.05v-.41c0-.86,.13-1.62,.38-2.29,.25-.68,.6-1.25,1.04-1.72,.44-.47,.93-.82,1.48-1.06,.55-.24,1.13-.36,1.72-.36,.76,0,1.41,.13,1.95,.39,.55,.26,1.01,.62,1.36,1.09,.35,.46,.61,1.01,.78,1.64,.17,.62,.25,1.31,.25,2.05v.81h-7.89v-1.47h6.08v-.14c-.03-.47-.12-.92-.29-1.37-.16-.44-.42-.81-.78-1.09-.36-.29-.85-.43-1.46-.43-.41,0-.79,.09-1.13,.26-.35,.17-.64,.42-.89,.76-.25,.34-.44,.75-.58,1.24-.14,.49-.21,1.05-.21,1.69v.41c0,.5,.07,.97,.21,1.42,.14,.44,.35,.82,.62,1.15,.27,.33,.6,.59,.99,.78,.39,.19,.83,.28,1.33,.28,.64,0,1.18-.13,1.62-.39,.44-.26,.83-.61,1.16-1.04l1.09,.87c-.23,.35-.52,.67-.87,.99s-.78,.57-1.3,.76c-.51,.2-1.11,.29-1.81,.29Zm-10.28-13.33h1.81v10.52c0,.36,.06,.63,.17,.81,.11,.18,.25,.3,.43,.36s.36,.09,.57,.09c.15,0,.31-.01,.47-.04,.17-.03,.3-.06,.38-.08v1.47c-.13,.05-.32,.09-.56,.13-.23,.05-.5,.07-.83,.07-.44,0-.85-.09-1.22-.26s-.67-.47-.89-.88c-.21-.42-.32-.98-.32-1.68v-10.51Zm3.78,2.57v1.39h-5.71v-1.39h5.71Zm-8.6,7.76c0-.26-.06-.5-.18-.72-.11-.23-.34-.43-.69-.62-.35-.19-.87-.35-1.56-.49-.59-.12-1.12-.27-1.59-.44-.47-.17-.87-.37-1.2-.62-.33-.24-.58-.52-.75-.85-.18-.33-.26-.71-.26-1.14s.09-.81,.27-1.18c.19-.37,.45-.7,.79-.99,.35-.29,.76-.51,1.24-.67,.48-.16,1.02-.24,1.61-.24,.85,0,1.57,.15,2.17,.45,.6,.3,1.06,.7,1.38,1.2,.32,.49,.48,1.04,.48,1.65h-1.81c0-.29-.09-.58-.26-.85-.17-.28-.42-.51-.75-.69-.33-.18-.73-.27-1.2-.27-.5,0-.91,.08-1.22,.23-.31,.15-.53,.34-.67,.58-.14,.23-.21,.48-.21,.74,0,.2,.03,.37,.1,.53,.07,.15,.2,.29,.37,.42,.18,.12,.42,.24,.74,.35,.32,.11,.73,.22,1.22,.33,.87,.2,1.58,.43,2.14,.7,.56,.27,.98,.61,1.25,1.01,.27,.4,.41,.88,.41,1.45,0,.46-.1,.89-.29,1.27-.19,.38-.47,.72-.83,1-.36,.27-.79,.49-1.29,.64-.49,.15-1.05,.22-1.67,.22-.93,0-1.72-.17-2.36-.5-.64-.33-1.13-.76-1.46-1.29s-.5-1.08-.5-1.67h1.82c.03,.49,.17,.89,.43,1.18,.26,.29,.58,.49,.96,.62,.38,.12,.75,.18,1.12,.18,.49,0,.91-.07,1.24-.2,.34-.13,.6-.31,.77-.54,.18-.23,.26-.49,.26-.78Zm-10.49-3.6l.02,1.27h-1.83c-.51,0-.97,.04-1.38,.13-.4,.08-.74,.2-1.02,.36-.27,.16-.48,.37-.62,.62-.14,.24-.21,.52-.21,.85s.07,.63,.22,.91c.15,.27,.37,.49,.67,.65,.31,.16,.68,.23,1.12,.23,.55,0,1.04-.12,1.46-.35,.42-.23,.76-.52,1.01-.86,.25-.34,.39-.67,.41-.99l.77,.87c-.05,.27-.17,.58-.37,.91-.2,.33-.47,.65-.81,.96-.33,.3-.73,.55-1.19,.75-.46,.2-.97,.29-1.54,.29-.72,0-1.34-.14-1.88-.42-.53-.28-.95-.65-1.25-1.12-.29-.48-.44-1.01-.44-1.59s.11-1.06,.33-1.49c.22-.44,.54-.8,.96-1.08,.42-.29,.92-.51,1.5-.66,.59-.15,1.24-.22,1.96-.22h2.1Zm-.31,4.6v-5.44c0-.42-.08-.78-.25-1.08-.16-.31-.41-.55-.74-.72-.33-.17-.74-.25-1.23-.25-.46,0-.86,.08-1.2,.23-.34,.16-.61,.36-.8,.62-.19,.25-.28,.53-.28,.82h-1.81c0-.38,.1-.75,.29-1.12s.48-.71,.84-1.01c.37-.31,.81-.55,1.33-.72,.52-.18,1.1-.27,1.74-.27,.77,0,1.45,.13,2.03,.39,.59,.26,1.05,.65,1.39,1.18,.34,.52,.51,1.18,.51,1.96v4.92c0,.35,.03,.73,.09,1.12,.07,.4,.16,.74,.28,1.03v.16h-1.88c-.09-.21-.16-.48-.21-.83-.05-.35-.08-.68-.08-.98Zm-7.51-8.82v1.68c-.16-.03-.3-.05-.44-.06-.13-.01-.28-.02-.45-.02-.42,0-.78,.07-1.1,.2-.32,.13-.59,.31-.81,.55-.22,.23-.4,.51-.53,.84-.12,.32-.21,.67-.24,1.05l-.51,.29c0-.64,.06-1.24,.19-1.8,.13-.56,.33-1.05,.6-1.48,.27-.44,.61-.77,1.02-1.02,.42-.25,.91-.37,1.48-.37,.13,0,.28,.02,.45,.05,.17,.03,.29,.06,.35,.09Zm-3.3,1.72v8.91h-1.81v-10.57h1.76l.05,1.66Zm-3.48-1.72v1.68c-.16-.03-.3-.05-.44-.06-.13-.01-.28-.02-.45-.02-.42,0-.78,.07-1.1,.2-.32,.13-.59,.31-.81,.55-.22,.23-.4,.51-.53,.84-.12,.32-.21,.67-.24,1.05l-.51,.29c0-.64,.06-1.24,.19-1.8,.13-.56,.33-1.05,.6-1.48,.27-.44,.61-.77,1.02-1.02,.42-.25,.91-.37,1.48-.37,.13,0,.28,.02,.45,.05,.17,.03,.29,.06,.35,.09Zm-3.3,1.72v8.91h-1.81v-10.57h1.76l.05,1.66Zm-5.62,3.64v1.54h-7.99v-1.54h7.99Zm.24,5.26l-4.72-12.96-.03-1.26h1.24l5.44,14.22h-1.93Zm-3.95-12.96l-4.71,12.96h-1.92l5.42-14.22h1.24l-.03,1.26Z"/>
  <path class="cls-7" d="M866.17,593.59v-2.19c0-.23-.23-.47-.47-.47h-3.59v-3.59c0-.23-.23-.47-.47-.47h-2.19c-.27,0-.47,.23-.47,.47v3.59h-3.59c-.27,0-.47,.23-.47,.47v2.19c0,.27,.2,.47,.47,.47h3.59v3.59c0,.27,.2,.47,.47,.47h2.19c.23,0,.47-.2,.47-.47v-3.59h3.59c.23,0,.47-.2,.47-.47Zm-5.62-10.78c5.35,0,9.69,4.34,9.69,9.69s-4.34,9.69-9.69,9.69-9.69-4.34-9.69-9.69,4.34-9.69,9.69-9.69Z"/>
  <path class="cls-3" d="M22,97.5c0-24.02,19.48-43.5,43.5-43.5h27c24.02,0,43.5,19.48,43.5,43.5s-19.48,43.5-43.5,43.5h-27c-24.02,0-43.5-19.48-43.5-43.5Z"/>
  <path class="cls-1" d="M83.13,106.66v-1.69c0-.42-.42-.84-.84-.84h-.84v-7.03c0-.42-.42-.84-.84-.84h-4.5c-.49,0-.84,.42-.84,.84v1.69c0,.49,.35,.84,.84,.84h.84v4.5h-.84c-.49,0-.84,.42-.84,.84v1.69c0,.49,.35,.84,.84,.84h6.19c.42,0,.84-.35,.84-.84Zm-3.94-17.86c-1.69,0-2.95,1.34-2.95,2.95s1.27,2.95,2.95,2.95,2.95-1.27,2.95-2.95-1.34-2.95-2.95-2.95Zm0-7.73c9.56,0,17.44,7.88,17.44,17.44s-7.88,17.44-17.44,17.44-17.44-7.8-17.44-17.44,7.8-17.44,17.44-17.44Z"/>
  <rect class="cls-3" x="439" y="63" width="443" height="87" rx="4" ry="4"/>
  <path class="cls-1" d="M491.25,101.16v-2.81c0-.42-.42-.84-.84-.84h-2.81c-.49,0-.84,.42-.84,.84v2.81c0,.49,.35,.84,.84,.84h2.81c.42,0,.84-.35,.84-.84Zm0,6.75v-2.81c0-.42-.42-.84-.84-.84h-2.81c-.49,0-.84,.42-.84,.84v2.81c0,.49,.35,.84,.84,.84h2.81c.42,0,.84-.35,.84-.84Zm0,6.75v-2.81c0-.42-.42-.84-.84-.84h-2.81c-.49,0-.84,.42-.84,.84v2.81c0,.49,.35,.84,.84,.84h2.81c.42,0,.84-.35,.84-.84Zm-7.88-10.69v-6.75c0-.42-.42-.84-.84-.84h-14.06c-.49,0-.84,.42-.84,.84v6.75c0,.49,.35,.84,.84,.84h14.06c.42,0,.84-.35,.84-.84Zm0,11.81v-6.75c0-.42-.42-.84-.84-.84h-14.06c-.49,0-.84,.42-.84,.84v6.75c0,.49,.35,.84,.84,.84h14.06c.42,0,.84-.35,.84-.84Zm-19.12-14.62v-2.81c0-.42-.42-.84-.84-.84h-2.81c-.49,0-.84,.42-.84,.84v2.81c0,.49,.35,.84,.84,.84h2.81c.42,0,.84-.35,.84-.84Zm0,6.75v-2.81c0-.42-.42-.84-.84-.84h-2.81c-.49,0-.84,.42-.84,.84v2.81c0,.49,.35,.84,.84,.84h2.81c.42,0,.84-.35,.84-.84Zm0,6.75v-2.81c0-.42-.42-.84-.84-.84h-2.81c-.49,0-.84,.42-.84,.84v2.81c0,.49,.35,.84,.84,.84h2.81c.42,0,.84-.35,.84-.84Zm27.56-21.66c.91,0,1.69,.77,1.69,1.69v23.62c0,.98-.77,1.69-1.69,1.69h-.56v-1.41c0-.42-.42-.84-.84-.84h-2.81c-.49,0-.84,.42-.84,.84v1.41h-22.5v-1.41c0-.42-.42-.84-.84-.84h-2.81c-.49,0-.84,.42-.84,.84v1.41h-.56c-.98,0-1.69-.7-1.69-1.69v-23.62c0-.91,.7-1.69,1.69-1.69h.56v1.41c0,.49,.35,.84,.84,.84h2.81c.42,0,.84-.35,.84-.84v-1.41h22.5v1.41c0,.49,.35,.84,.84,.84h2.81c.42,0,.84-.35,.84-.84v-1.41h.56Z"/>
  <path class="cls-1" d="M774.62,111.96c0-.47-.11-.9-.32-1.3-.2-.41-.62-.78-1.25-1.11-.62-.34-1.56-.63-2.81-.88-1.05-.22-2.01-.49-2.87-.79-.84-.3-1.56-.67-2.16-1.11-.59-.43-1.04-.94-1.35-1.53-.32-.59-.47-1.27-.47-2.06s.16-1.46,.49-2.13c.34-.67,.81-1.26,1.42-1.78,.62-.52,1.37-.92,2.23-1.21s1.83-.44,2.9-.44c1.52,0,2.82,.27,3.9,.81,1.08,.54,1.9,1.26,2.48,2.16,.57,.89,.86,1.88,.86,2.97h-3.25c0-.53-.16-1.04-.47-1.53-.3-.5-.76-.92-1.35-1.25-.59-.33-1.31-.49-2.16-.49-.9,0-1.63,.14-2.2,.42-.55,.27-.96,.62-1.21,1.04-.25,.42-.37,.87-.37,1.34,0,.35,.06,.67,.18,.95,.13,.27,.35,.52,.67,.76,.32,.22,.76,.43,1.34,.63s1.31,.4,2.2,.6c1.56,.35,2.84,.77,3.85,1.27s1.76,1.1,2.25,1.81c.49,.71,.74,1.58,.74,2.6,0,.83-.18,1.59-.53,2.29-.34,.69-.84,1.29-1.49,1.79-.64,.49-1.42,.88-2.32,1.16-.89,.27-1.89,.4-3.01,.4-1.68,0-3.09-.3-4.25-.9s-2.04-1.37-2.64-2.32-.9-1.95-.9-3.01h3.27c.05,.89,.3,1.6,.77,2.13,.47,.52,1.04,.88,1.72,1.11,.68,.21,1.35,.32,2.02,.32,.89,0,1.63-.12,2.23-.35,.61-.23,1.07-.56,1.39-.97,.32-.41,.47-.88,.47-1.41Zm-29.21-4.66v.4c0,.95,.11,1.85,.33,2.69,.22,.83,.56,1.57,1,2.21,.46,.64,1.03,1.15,1.71,1.53,.68,.36,1.47,.54,2.37,.54s1.67-.18,2.34-.54c.68-.38,1.24-.88,1.69-1.53,.45-.64,.78-1.38,1-2.21,.23-.84,.35-1.74,.35-2.69v-.4c0-.94-.12-1.82-.35-2.65-.22-.84-.56-1.59-1.02-2.23-.45-.66-1.01-1.17-1.69-1.55-.67-.38-1.45-.56-2.36-.56s-1.68,.19-2.36,.56c-.67,.38-1.23,.89-1.69,1.55-.45,.64-.78,1.39-1,2.23-.22,.83-.33,1.72-.33,2.65Zm-3.25,.4v-.4c0-1.37,.2-2.64,.6-3.81,.4-1.18,.97-2.21,1.72-3.08,.75-.88,1.66-1.56,2.72-2.04,1.07-.49,2.26-.74,3.59-.74s2.54,.25,3.6,.74c1.08,.48,1.99,1.16,2.74,2.04,.76,.87,1.34,1.89,1.74,3.08,.4,1.17,.6,2.44,.6,3.81v.4c0,1.37-.2,2.64-.6,3.81-.4,1.17-.98,2.2-1.74,3.08-.75,.87-1.66,1.55-2.72,2.04-1.05,.48-2.25,.72-3.59,.72s-2.54-.24-3.6-.72c-1.07-.49-1.98-1.17-2.74-2.04-.75-.88-1.32-1.9-1.72-3.08-.4-1.17-.6-2.44-.6-3.81Zm-10.34,9.65c-1.32,0-2.53-.22-3.6-.67-1.07-.46-1.99-1.1-2.76-1.92-.76-.82-1.35-1.79-1.76-2.92-.41-1.12-.62-2.36-.62-3.69v-.74c0-1.55,.23-2.92,.69-4.13,.46-1.22,1.08-2.25,1.86-3.09s1.68-1.48,2.67-1.92,2.03-.65,3.09-.65c1.36,0,2.53,.23,3.52,.7,1,.47,1.81,1.12,2.44,1.97,.63,.83,1.1,1.82,1.41,2.95,.3,1.12,.46,2.36,.46,3.69v1.46h-14.2v-2.65h10.95v-.25c-.05-.84-.22-1.66-.53-2.46-.29-.8-.76-1.45-1.41-1.97s-1.52-.77-2.64-.77c-.74,0-1.42,.16-2.04,.47-.62,.3-1.15,.76-1.6,1.37s-.79,1.35-1.04,2.23c-.25,.88-.37,1.89-.37,3.04v.74c0,.9,.12,1.75,.37,2.55,.26,.79,.63,1.48,1.11,2.07,.49,.6,1.08,1.07,1.78,1.41,.7,.34,1.5,.51,2.39,.51,1.15,0,2.12-.23,2.92-.7s1.49-1.1,2.09-1.88l1.97,1.56c-.41,.62-.93,1.21-1.56,1.78s-1.41,1.02-2.34,1.37c-.91,.35-2,.53-3.25,.53Zm-25.75-10.02v.37c0,.95,.09,1.84,.28,2.67,.2,.83,.5,1.56,.91,2.2,.41,.63,.93,1.13,1.56,1.49,.63,.35,1.39,.53,2.27,.53,1.08,0,1.96-.23,2.65-.69,.7-.46,1.27-1.06,1.69-1.81s.75-1.56,.98-2.44v-4.24c-.14-.64-.35-1.27-.62-1.86-.26-.61-.6-1.15-1.02-1.62-.41-.48-.92-.86-1.53-1.14-.6-.28-1.31-.42-2.13-.42-.89,0-1.66,.19-2.3,.56-.63,.36-1.15,.87-1.56,1.51-.41,.63-.71,1.37-.91,2.21-.19,.83-.28,1.72-.28,2.67Zm-3.27,.37v-.37c0-1.45,.18-2.77,.53-3.96,.36-1.2,.87-2.22,1.53-3.08,.67-.86,1.46-1.51,2.37-1.97,.93-.47,1.96-.7,3.09-.7,1.2,0,2.24,.21,3.13,.63,.9,.41,1.66,1.01,2.29,1.81,.63,.79,1.13,1.73,1.49,2.85,.36,1.11,.62,2.37,.76,3.78v1.62c-.13,1.39-.38,2.65-.76,3.76-.36,1.11-.86,2.06-1.49,2.85-.62,.79-1.38,1.39-2.29,1.81-.9,.41-1.96,.62-3.16,.62-1.11,0-2.13-.24-3.06-.72-.91-.48-1.71-1.15-2.37-2.02-.66-.87-1.17-1.89-1.53-3.06-.35-1.18-.53-2.47-.53-3.85Zm12.8,5.61v-23.31h3.27v27h-2.99l-.28-3.69Zm-20.76-18.11l3.41-5.17h3.92l-4.71,5.17h-2.62Zm3.36,2.78v19.02h-3.25v-19.02h3.25Zm-24.73-6.57l7.47,21.71,.93,3.88h-2.62l-9.46-25.59h3.67Zm7.05,21.71l7.54-21.71h3.67l-9.47,25.59h-2.62l.88-3.88Zm-20.69-15.24l-.02,3.02c-.27-.06-.53-.09-.77-.11-.23-.02-.5-.04-.81-.04-.75,0-1.41,.12-1.99,.35-.57,.23-1.06,.56-1.46,.98-.4,.42-.71,.93-.95,1.51-.22,.57-.37,1.21-.44,1.9l-.91,.53c0-1.15,.11-2.23,.33-3.23,.23-1.01,.59-1.9,1.07-2.67,.48-.79,1.09-1.39,1.83-1.83,.75-.45,1.64-.67,2.67-.67,.23,0,.5,.03,.81,.09,.3,.05,.52,.1,.63,.16Zm-5.94,3.09v16.03h-3.25v-19.02h3.16l.09,2.99Zm-11.06,4.5l.04,2.29h-3.29c-.93,0-1.75,.08-2.48,.23-.73,.14-1.34,.36-1.83,.65-.49,.29-.87,.66-1.12,1.11-.26,.43-.39,.94-.39,1.53s.13,1.14,.4,1.63,.67,.88,1.21,1.18c.55,.28,1.22,.42,2.02,.42,1,0,1.88-.21,2.64-.63s1.37-.94,1.81-1.55c.46-.61,.7-1.2,.74-1.78l1.39,1.56c-.08,.49-.3,1.04-.67,1.63-.36,.6-.85,1.17-1.46,1.72-.6,.54-1.31,.99-2.14,1.35-.82,.35-1.75,.53-2.78,.53-1.29,0-2.42-.25-3.39-.76-.96-.5-1.71-1.18-2.25-2.02-.53-.86-.79-1.81-.79-2.87s.2-1.92,.6-2.69c.4-.79,.97-1.44,1.72-1.95,.75-.53,1.65-.93,2.71-1.2,1.05-.27,2.23-.4,3.53-.4h3.78Zm-.56,8.28v-9.79c0-.75-.15-1.4-.46-1.95-.29-.56-.74-1-1.34-1.3-.6-.3-1.34-.46-2.21-.46-.82,0-1.54,.14-2.16,.42-.61,.28-1.09,.65-1.44,1.11-.34,.46-.51,.95-.51,1.48h-3.25c0-.68,.18-1.35,.53-2.02,.35-.67,.86-1.27,1.51-1.81,.67-.55,1.46-.98,2.39-1.3,.94-.33,1.98-.49,3.13-.49,1.38,0,2.6,.23,3.66,.7,1.07,.47,1.9,1.18,2.5,2.13,.61,.94,.91,2.12,.91,3.53v8.86c0,.63,.05,1.31,.16,2.02,.12,.71,.29,1.33,.51,1.85v.28h-3.39c-.16-.38-.29-.87-.39-1.49-.09-.63-.14-1.22-.14-1.76Zm-13.52-15.87l-.02,3.02c-.27-.06-.53-.09-.77-.11-.23-.02-.5-.04-.81-.04-.75,0-1.41,.12-1.99,.35-.57,.23-1.06,.56-1.46,.98-.4,.42-.71,.93-.95,1.51-.22,.57-.37,1.21-.44,1.9l-.91,.53c0-1.15,.11-2.23,.33-3.23,.23-1.01,.59-1.9,1.07-2.67,.48-.79,1.09-1.39,1.83-1.83,.75-.45,1.64-.67,2.67-.67,.23,0,.5,.03,.81,.09,.3,.05,.52,.1,.63,.16Zm-5.94,3.09v16.03h-3.25v-19.02h3.16l.09,2.99Zm-10.86,7.63l1.35-.04c0,1.27-.13,2.44-.4,3.52-.26,1.07-.68,1.99-1.27,2.78s-1.35,1.4-2.3,1.85c-.95,.43-2.1,.65-3.46,.65-.93,0-1.78-.13-2.55-.4-.76-.27-1.42-.69-1.97-1.25s-.98-1.29-1.28-2.2c-.29-.9-.44-1.99-.44-3.25v-12.27h3.25v12.3c0,.86,.09,1.56,.28,2.13,.2,.55,.46,.99,.79,1.32,.34,.32,.71,.54,1.12,.67,.42,.13,.86,.19,1.3,.19,1.38,0,2.48-.26,3.29-.79,.81-.54,1.39-1.26,1.74-2.16,.36-.91,.54-1.93,.54-3.04Zm-.62,4.01v-14.62h3.27v19.02h-3.11l-.16-4.39Zm-22.87,2.07c.77,0,1.49-.16,2.14-.47,.66-.32,1.2-.75,1.62-1.3,.42-.56,.66-1.2,.72-1.92h3.09c-.06,1.12-.44,2.17-1.14,3.15-.69,.96-1.6,1.74-2.72,2.34-1.12,.59-2.36,.88-3.71,.88-1.43,0-2.68-.25-3.74-.76-1.05-.5-1.93-1.2-2.64-2.07-.69-.88-1.21-1.89-1.56-3.02-.34-1.15-.51-2.36-.51-3.64v-.74c0-1.28,.17-2.48,.51-3.62,.35-1.15,.87-2.16,1.56-3.04,.7-.88,1.58-1.57,2.64-2.07,1.07-.5,2.31-.76,3.74-.76s2.79,.3,3.9,.91c1.11,.6,1.99,1.42,2.62,2.46,.64,1.03,1,2.2,1.05,3.52h-3.09c-.06-.79-.28-1.49-.67-2.13-.38-.63-.89-1.14-1.55-1.51-.64-.39-1.4-.58-2.27-.58-1,0-1.83,.2-2.51,.6-.67,.39-1.2,.91-1.6,1.58-.39,.66-.67,1.39-.84,2.2-.16,.8-.25,1.61-.25,2.44v.74c0,.83,.08,1.65,.25,2.46,.16,.81,.44,1.54,.83,2.2,.4,.66,.93,1.18,1.6,1.58,.68,.39,1.52,.58,2.53,.58Zm-25.75-7.38v.4c0,.95,.11,1.85,.33,2.69,.22,.83,.56,1.57,1,2.21,.46,.64,1.03,1.15,1.71,1.53,.68,.36,1.47,.54,2.37,.54s1.67-.18,2.34-.54c.68-.38,1.24-.88,1.69-1.53,.45-.64,.78-1.38,1-2.21,.23-.84,.35-1.74,.35-2.69v-.4c0-.94-.12-1.82-.35-2.65-.22-.84-.56-1.59-1.02-2.23-.45-.66-1.01-1.17-1.69-1.55-.67-.38-1.45-.56-2.36-.56s-1.68,.19-2.36,.56c-.67,.38-1.23,.89-1.69,1.55-.45,.64-.78,1.39-1,2.23-.22,.83-.33,1.72-.33,2.65Zm-3.25,.4v-.4c0-1.37,.2-2.64,.6-3.81,.4-1.18,.97-2.21,1.72-3.08,.75-.88,1.66-1.56,2.72-2.04,1.07-.49,2.26-.74,3.59-.74s2.54,.25,3.6,.74c1.08,.48,1.99,1.16,2.74,2.04,.76,.87,1.34,1.89,1.74,3.08,.4,1.17,.6,2.44,.6,3.81v.4c0,1.37-.2,2.64-.6,3.81-.4,1.17-.98,2.2-1.74,3.08-.75,.87-1.66,1.55-2.72,2.04-1.05,.48-2.25,.72-3.59,.72s-2.54-.24-3.6-.72c-1.07-.49-1.98-1.17-2.74-2.04-.75-.88-1.32-1.9-1.72-3.08-.4-1.17-.6-2.44-.6-3.81Zm-1.79-9.83l-.02,3.02c-.27-.06-.53-.09-.77-.11-.23-.02-.5-.04-.81-.04-.75,0-1.41,.12-1.99,.35-.57,.23-1.06,.56-1.46,.98-.4,.42-.71,.93-.95,1.51-.22,.57-.37,1.21-.44,1.9l-.91,.53c0-1.15,.11-2.23,.33-3.23,.23-1.01,.59-1.9,1.07-2.67,.48-.79,1.09-1.39,1.83-1.83,.75-.45,1.64-.67,2.67-.67,.23,0,.5,.03,.81,.09,.3,.05,.52,.1,.63,.16Zm-5.94,3.09v16.03h-3.25v-19.02h3.16l.09,2.99Zm-16.03,5.99h-6.84v-2.76h6.84c1.32,0,2.4-.21,3.22-.63s1.42-1.01,1.79-1.76c.39-.75,.58-1.61,.58-2.57,0-.88-.19-1.71-.58-2.48-.38-.77-.97-1.39-1.79-1.86-.82-.48-1.89-.72-3.22-.72h-6.05v22.82h-3.39v-25.59h9.44c1.93,0,3.57,.33,4.9,1s2.35,1.59,3.04,2.78c.69,1.17,1.04,2.51,1.04,4.03,0,1.64-.35,3.04-1.04,4.2-.69,1.16-1.71,2.05-3.04,2.65-1.34,.6-2.97,.9-4.9,.9Z"/>
  <path class="cls-1" d="M815.12,112.12c4.92,0,9-4.01,9-9s-4.08-9-9-9-9,4.08-9,9,4.01,9,9,9Zm20.88,7.52c.63,.7,.63,1.76-.07,2.39l-1.97,1.97c-.63,.7-1.69,.7-2.39,0l-6.96-6.96c-.35-.35-.49-.77-.49-1.2v-1.2c-2.53,1.97-5.62,3.09-9,3.09-8.09,0-14.62-6.54-14.62-14.62s6.54-14.62,14.62-14.62,14.62,6.61,14.62,14.62c0,3.45-1.2,6.54-3.09,9h1.12c.42,0,.84,.21,1.2,.49l7.03,7.03Z"/>
  <path class="cls-4" d="M0,1079c0-8.84,7.16-16,16-16H1309c8.84,0,16,7.16,16,16v110c0,1.1-.9,2-2,2H2c-1.1,0-2-.9-2-2v-110Z"/>
  <path class="cls-2" d="M140.96,1127c0-20.49,16.61-37.1,37.1-37.1h1.9c20.49,0,37.1,16.61,37.1,37.1s-16.61,37.1-37.1,37.1h-1.9c-20.49,0-37.1-16.61-37.1-37.1Z"/>
  <path class="cls-1" d="M194.13,1139.18c0,1.81-1.47,3.21-3.21,3.21h-6.42c-1.81,0-3.21-1.4-3.21-3.21v-23.54c0-1.74,1.4-3.21,3.21-3.21h6.42c1.74,0,3.21,1.47,3.21,3.21v23.54Zm-20.33,3.21h-6.42c-1.81,0-3.21-1.4-3.21-3.21v-23.54c0-1.74,1.4-3.21,3.21-3.21h6.42c1.74,0,3.21,1.47,3.21,3.21v23.54c0,1.81-1.47,3.21-3.21,3.21Z"/>
  <path class="cls-5" d="M307.41,1127c0-20.49,16.61-37.1,37.1-37.1h1.9c20.49,0,37.1,16.61,37.1,37.1s-16.61,37.1-37.1,37.1h-1.9c-20.49,0-37.1-16.61-37.1-37.1Z"/>
  <path class="cls-1" d="M357.39,1112.49c1.74,0,3.21,1.47,3.21,3.21v23.54c0,1.81-1.47,3.21-3.21,3.21h-23.54c-1.81,0-3.21-1.4-3.21-3.21v-23.54c0-1.74,1.4-3.21,3.21-3.21h23.54Z"/>
  <path class="cls-6" d="M482.43,1127c0-20.49,16.61-37.1,37.1-37.1h115.09c20.49,0,37.1,16.61,37.1,37.1s-16.61,37.1-37.1,37.1h-115.09c-20.49,0-37.1-16.61-37.1-37.1Z"/>
  <path class="cls-1" d="M529.46,1122.46c1.87,1,3.08,3.01,3.08,5.08s-1.2,4.15-3.08,5.15c-.8,.47-1.74,.2-2.21-.6-.4-.8-.13-1.74,.67-2.21s1.4-1.34,1.4-2.34c0-.94-.6-1.81-1.4-2.27s-1.07-1.4-.67-2.21c.47-.8,1.4-1.07,2.21-.6Zm-8.23-7.22c1-1,2.74-.33,2.74,1.14v22.4c0,1.47-1.74,2.14-2.74,1.14l-5.95-5.95h-6.82c-.94,0-1.61-.67-1.61-1.61v-9.63c0-.87,.67-1.61,1.61-1.61h6.82l5.95-5.89Z"/>
  <path class="cls-1" d="M611.2,1117.53l-11.89,19.03-1.74-1.1,11.89-19.03,1.74,1.1Zm-3.43,14.91v1.3c0,.51,.09,1,.28,1.47,.2,.46,.5,.83,.9,1.12,.4,.28,.9,.42,1.5,.42s1.1-.14,1.49-.42c.4-.29,.7-.66,.89-1.12,.19-.46,.28-.95,.28-1.47v-1.3c0-.52-.1-1.01-.3-1.47-.19-.46-.48-.82-.89-1.1-.39-.29-.89-.43-1.5-.43s-1.09,.14-1.49,.43c-.39,.28-.69,.65-.89,1.1-.19,.46-.28,.95-.28,1.47Zm-2.32,1.3v-1.3c0-.91,.2-1.75,.6-2.51s.98-1.37,1.72-1.82,1.63-.69,2.66-.69,1.94,.23,2.68,.69c.75,.46,1.32,1.06,1.72,1.82s.6,1.59,.6,2.51v1.3c0,.91-.2,1.75-.6,2.51-.39,.76-.96,1.37-1.71,1.82-.74,.46-1.62,.69-2.66,.69s-1.93-.23-2.68-.69c-.75-.46-1.33-1.06-1.74-1.82-.4-.76-.6-1.59-.6-2.51Zm-9.53-15v1.29c0,.51,.09,1,.28,1.45,.2,.46,.5,.83,.9,1.12,.4,.28,.9,.42,1.5,.42s1.1-.14,1.49-.42c.39-.29,.68-.66,.87-1.12s.28-.94,.28-1.45v-1.29c0-.52-.1-1.01-.3-1.47-.19-.47-.48-.84-.89-1.12-.39-.29-.89-.43-1.49-.43s-1.09,.14-1.49,.43c-.39,.28-.69,.65-.89,1.12-.19,.46-.28,.95-.28,1.47Zm-2.32,1.29v-1.29c0-.93,.2-1.77,.6-2.52s.98-1.37,1.72-1.82,1.63-.69,2.66-.69,1.94,.23,2.68,.69c.75,.46,1.32,1.06,1.72,1.82s.6,1.6,.6,2.52v1.29c0,.9-.2,1.73-.6,2.49-.39,.76-.96,1.37-1.71,1.82-.74,.46-1.62,.69-2.66,.69s-1.93-.23-2.69-.69c-.75-.46-1.32-1.06-1.72-1.82s-.6-1.59-.6-2.49Zm-6.82,8.48v-4.73c0-1.09-.07-2.05-.2-2.88-.12-.84-.31-1.55-.55-2.14s-.56-1.07-.94-1.44c-.37-.37-.8-.64-1.29-.8-.48-.18-1.02-.27-1.62-.27-.74,0-1.39,.14-1.96,.42-.57,.27-1.05,.7-1.44,1.29-.38,.59-.67,1.37-.87,2.32s-.3,2.12-.3,3.49v4.73c0,1.09,.06,2.06,.18,2.89,.13,.84,.33,1.56,.59,2.17,.26,.6,.57,1.1,.94,1.49,.37,.39,.79,.68,1.27,.87,.49,.18,1.03,.27,1.62,.27,.76,0,1.42-.14,1.99-.43,.57-.29,1.04-.74,1.42-1.35,.39-.62,.68-1.42,.87-2.39,.19-.98,.28-2.15,.28-3.51Zm3.11-4.21v3.71c0,2-.18,3.68-.54,5.05s-.87,2.47-1.54,3.31c-.67,.84-1.48,1.44-2.42,1.82-.94,.37-2,.55-3.18,.55-.94,0-1.8-.12-2.59-.35-.79-.23-1.5-.61-2.14-1.12-.62-.52-1.16-1.2-1.61-2.04-.45-.84-.79-1.85-1.02-3.04s-.35-2.59-.35-4.18v-3.71c0-2,.18-3.67,.54-5.02,.37-1.35,.89-2.43,1.55-3.24,.67-.82,1.47-1.42,2.41-1.77,.95-.36,2.01-.54,3.18-.54,.95,0,1.82,.12,2.61,.35,.8,.22,1.52,.59,2.14,1.09,.62,.49,1.15,1.15,1.59,1.97,.45,.81,.79,1.81,1.02,2.99s.35,2.57,.35,4.16Zm-18.59,11.57v2.54h-15.93v-2.22l7.98-8.88c.98-1.09,1.74-2.02,2.27-2.78,.55-.77,.93-1.45,1.14-2.06,.22-.61,.33-1.24,.33-1.87,0-.8-.17-1.53-.5-2.17-.32-.66-.8-1.18-1.44-1.57s-1.4-.59-2.31-.59c-1.08,0-1.98,.21-2.71,.64-.71,.41-1.25,.99-1.61,1.74s-.54,1.61-.54,2.57h-3.09c0-1.37,.3-2.62,.9-3.76s1.49-2.04,2.68-2.71c1.18-.68,2.64-1.02,4.36-1.02,1.54,0,2.85,.27,3.95,.82,1.09,.54,1.93,1.29,2.51,2.27,.59,.97,.89,2.11,.89,3.41,0,.71-.12,1.44-.37,2.17-.23,.72-.56,1.45-.99,2.17-.41,.72-.9,1.44-1.45,2.14-.55,.7-1.13,1.39-1.76,2.07l-6.52,7.07h12.21Z"/>
  <path class="cls-6" d="M763.02,1127c0-20.49,16.61-37.1,37.1-37.1h115.09c20.49,0,37.1,16.61,37.1,37.1s-16.61,37.1-37.1,37.1h-115.09c-20.49,0-37.1-16.61-37.1-37.1Z"/>
  <path class="cls-1" d="M819.78,1122.39c1.87,1,3.08,3.01,3.08,5.08s-1.2,4.15-3.08,5.15c-.8,.47-1.74,.2-2.21-.6-.4-.8-.13-1.74,.67-2.21s1.4-1.34,1.4-2.34c0-.94-.6-1.81-1.4-2.27s-1.07-1.4-.67-2.21c.47-.8,1.4-1.07,2.21-.6Zm9.5,5.08c0,4.28-2.21,8.16-5.75,10.5-.8,.47-1.81,.2-2.21-.54-.47-.74-.27-1.74,.47-2.21,2.68-1.67,4.28-4.61,4.28-7.76s-1.61-6.02-4.28-7.69c-.74-.47-.94-1.47-.47-2.21,.47-.8,1.47-1,2.21-.54,3.54,2.34,5.75,6.22,5.75,10.43Zm-2.14-15.78c5.35,3.54,8.56,9.43,8.56,15.78s-3.21,12.31-8.56,15.85c-.8,.47-1.81,.2-2.27-.47-.47-.8-.27-1.81,.47-2.27,4.48-2.88,7.09-7.82,7.09-13.04s-2.61-10.23-7.09-13.11c-.74-.47-.94-1.47-.47-2.27,.54-.74,1.54-.94,2.27-.47Zm-15.58,3.48c1-1,2.74-.33,2.74,1.14v22.4c0,1.47-1.74,2.14-2.74,1.14l-5.95-5.95h-6.82c-.94,0-1.61-.67-1.61-1.61v-9.63c0-.87,.67-1.61,1.61-1.61h6.82l5.95-5.89Z"/>
  <path class="cls-1" d="M919.97,1117.53l-11.89,19.03-1.74-1.1,11.89-19.03,1.74,1.1Zm-3.43,14.91v1.3c0,.51,.09,1,.28,1.47,.2,.46,.5,.83,.9,1.12,.4,.28,.9,.42,1.5,.42s1.1-.14,1.49-.42c.4-.29,.7-.66,.89-1.12,.19-.46,.28-.95,.28-1.47v-1.3c0-.52-.1-1.01-.3-1.47-.19-.46-.48-.82-.89-1.1-.39-.29-.89-.43-1.5-.43s-1.09,.14-1.49,.43c-.39,.28-.69,.65-.89,1.1-.19,.46-.28,.95-.28,1.47Zm-2.32,1.3v-1.3c0-.91,.2-1.75,.6-2.51s.98-1.37,1.72-1.82,1.63-.69,2.66-.69,1.94,.23,2.68,.69c.75,.46,1.32,1.06,1.72,1.82s.6,1.59,.6,2.51v1.3c0,.91-.2,1.75-.6,2.51-.39,.76-.96,1.37-1.71,1.82-.74,.46-1.62,.69-2.66,.69s-1.93-.23-2.68-.69c-.75-.46-1.33-1.06-1.74-1.82-.4-.76-.6-1.59-.6-2.51Zm-9.53-15v1.29c0,.51,.09,1,.28,1.45,.2,.46,.5,.83,.9,1.12,.4,.28,.9,.42,1.5,.42s1.1-.14,1.49-.42c.39-.29,.68-.66,.87-1.12s.28-.94,.28-1.45v-1.29c0-.52-.1-1.01-.3-1.47-.19-.47-.48-.84-.89-1.12-.39-.29-.89-.43-1.49-.43s-1.09,.14-1.49,.43c-.39,.28-.69,.65-.89,1.12-.19,.46-.28,.95-.28,1.47Zm-2.32,1.29v-1.29c0-.93,.2-1.77,.6-2.52s.98-1.37,1.72-1.82,1.63-.69,2.66-.69,1.94,.23,2.68,.69c.75,.46,1.32,1.06,1.72,1.82s.6,1.6,.6,2.52v1.29c0,.9-.2,1.73-.6,2.49-.39,.76-.96,1.37-1.71,1.82-.74,.46-1.62,.69-2.66,.69s-1.93-.23-2.69-.69c-.75-.46-1.32-1.06-1.72-1.82s-.6-1.59-.6-2.49Zm-6.82,8.48v-4.73c0-1.09-.07-2.05-.2-2.88-.12-.84-.31-1.55-.55-2.14s-.56-1.07-.94-1.44c-.37-.37-.8-.64-1.29-.8-.48-.18-1.02-.27-1.62-.27-.74,0-1.39,.14-1.96,.42-.57,.27-1.05,.7-1.44,1.29-.38,.59-.67,1.37-.87,2.32s-.3,2.12-.3,3.49v4.73c0,1.09,.06,2.06,.18,2.89,.13,.84,.33,1.56,.59,2.17,.26,.6,.57,1.1,.94,1.49,.37,.39,.79,.68,1.27,.87,.49,.18,1.03,.27,1.62,.27,.76,0,1.42-.14,1.99-.43,.57-.29,1.04-.74,1.42-1.35,.39-.62,.68-1.42,.87-2.39,.19-.98,.28-2.15,.28-3.51Zm3.11-4.21v3.71c0,2-.18,3.68-.54,5.05s-.87,2.47-1.54,3.31c-.67,.84-1.48,1.44-2.42,1.82-.94,.37-2,.55-3.18,.55-.94,0-1.8-.12-2.59-.35-.79-.23-1.5-.61-2.14-1.12-.62-.52-1.16-1.2-1.61-2.04-.45-.84-.79-1.85-1.02-3.04s-.35-2.59-.35-4.18v-3.71c0-2,.18-3.67,.54-5.02,.37-1.35,.89-2.43,1.55-3.24,.67-.82,1.47-1.42,2.41-1.77,.95-.36,2.01-.54,3.18-.54,.95,0,1.82,.12,2.61,.35,.8,.22,1.52,.59,2.14,1.09,.62,.49,1.15,1.15,1.59,1.97,.45,.81,.79,1.81,1.02,2.99s.35,2.57,.35,4.16Zm-22.37,4.21v-4.73c0-1.09-.07-2.05-.2-2.88-.12-.84-.31-1.55-.55-2.14s-.56-1.07-.94-1.44c-.37-.37-.8-.64-1.29-.8-.48-.18-1.02-.27-1.62-.27-.74,0-1.39,.14-1.96,.42-.57,.27-1.05,.7-1.44,1.29-.38,.59-.67,1.37-.87,2.32s-.3,2.12-.3,3.49v4.73c0,1.09,.06,2.06,.18,2.89,.13,.84,.33,1.56,.59,2.17,.26,.6,.57,1.1,.94,1.49,.37,.39,.79,.68,1.27,.87,.49,.18,1.03,.27,1.62,.27,.76,0,1.42-.14,1.99-.43,.57-.29,1.04-.74,1.42-1.35,.39-.62,.68-1.42,.87-2.39,.19-.98,.28-2.15,.28-3.51Zm3.11-4.21v3.71c0,2-.18,3.68-.54,5.05s-.87,2.47-1.54,3.31c-.67,.84-1.48,1.44-2.42,1.82-.94,.37-2,.55-3.18,.55-.94,0-1.8-.12-2.59-.35-.79-.23-1.5-.61-2.14-1.12-.62-.52-1.16-1.2-1.61-2.04-.45-.84-.79-1.85-1.02-3.04s-.35-2.59-.35-4.18v-3.71c0-2,.18-3.67,.54-5.02,.37-1.35,.89-2.43,1.55-3.24,.67-.82,1.47-1.42,2.41-1.77,.95-.36,2.01-.54,3.18-.54,.95,0,1.82,.12,2.61,.35,.8,.22,1.52,.59,2.14,1.09,.62,.49,1.15,1.15,1.59,1.97,.45,.81,.79,1.81,1.02,2.99s.35,2.57,.35,4.16Zm-24.38-10.37v24.48h-3.09v-20.62l-6.24,2.27v-2.79l8.84-3.34h.48Z"/>
  <path class="cls-9" d="M1040.76,1127c0-20.49,16.61-37.1,37.1-37.1h115.09c20.49,0,37.1,16.61,37.1,37.1s-16.61,37.1-37.1,37.1h-115.09c-20.49,0-37.1-16.61-37.1-37.1Z"/>
  <path class="cls-1" d="M1095.31,1110.35c.4,0,.8,.4,.8,.8v13.44c0,.4-.4,.8-.8,.8h-13.38c-.47,0-.8-.4-.8-.8v-3.21h-.07c0-.4,.4-.8,.8-.8h.07l6.82,.33c-2.14-3.14-5.75-5.22-9.76-5.22-6.55,0-11.77,5.28-11.77,11.77s5.22,11.77,11.77,11.77c2.94,0,5.68-1.07,7.76-2.88,.13-.13,.33-.2,.54-.2s.4,.07,.54,.2l2.27,2.27c.13,.13,.27,.33,.27,.6,0,.2-.13,.4-.27,.6-2.94,2.61-6.82,4.21-11.1,4.21-9.16,0-16.59-7.36-16.59-16.52-.07-9.16,7.42-16.65,16.59-16.65,5.02,0,9.56,2.27,12.57,5.89l-.27-5.55v-.07c0-.4,.4-.8,.8-.8h3.21Z"/>
  <path class="cls-1" d="M1218.72,1120.22l-.02,2.88c-.26-.06-.5-.09-.74-.1-.22-.02-.48-.03-.77-.03-.71,0-1.34,.11-1.89,.33s-1.01,.54-1.39,.94-.68,.88-.9,1.44c-.21,.55-.35,1.15-.42,1.81l-.87,.5c0-1.09,.11-2.12,.32-3.08,.22-.96,.56-1.81,1.02-2.54,.46-.75,1.04-1.33,1.74-1.74,.71-.42,1.56-.64,2.54-.64,.22,0,.48,.03,.77,.08,.29,.04,.49,.09,.6,.15Zm-5.65,2.94v15.25h-3.09v-18.09h3.01l.08,2.84Zm-11.4-7.64c0-.5,.15-.93,.45-1.27,.31-.35,.77-.52,1.37-.52s1.04,.17,1.35,.52c.32,.35,.48,.77,.48,1.27s-.16,.89-.48,1.24c-.31,.33-.76,.5-1.35,.5s-1.06-.17-1.37-.5c-.3-.35-.45-.76-.45-1.24Zm3.34,4.8v18.09h-3.11v-18.09h3.11Zm-13.46-4.4h3.09v18.01c0,.61,.09,1.08,.28,1.39s.43,.52,.74,.62,.62,.15,.97,.15c.26,0,.52-.02,.8-.07,.29-.06,.51-.1,.65-.13l.02,2.52c-.25,.08-.57,.15-.97,.22-.39,.08-.86,.12-1.42,.12-.76,0-1.45-.15-2.09-.45s-1.14-.8-1.52-1.5c-.37-.71-.55-1.67-.55-2.88v-17.99Zm6.47,4.4v2.37h-9.78v-2.37h9.78Zm-18.22,18.43c-1.26,0-2.4-.21-3.43-.64-1.01-.43-1.89-1.04-2.62-1.82-.72-.78-1.28-1.71-1.67-2.78s-.59-2.24-.59-3.51v-.7c0-1.47,.22-2.78,.65-3.93,.43-1.16,1.03-2.14,1.77-2.94s1.59-1.41,2.54-1.82,1.93-.62,2.94-.62c1.29,0,2.41,.22,3.34,.67,.95,.45,1.72,1.07,2.32,1.87,.6,.79,1.05,1.73,1.34,2.81,.29,1.07,.43,2.24,.43,3.51v1.39h-13.51v-2.52h10.42v-.23c-.04-.8-.21-1.58-.5-2.34-.28-.76-.72-1.38-1.34-1.87s-1.45-.74-2.51-.74c-.7,0-1.35,.15-1.94,.45-.59,.29-1.1,.72-1.52,1.3s-.75,1.29-.99,2.12-.35,1.8-.35,2.89v.7c0,.86,.12,1.67,.35,2.42,.25,.75,.6,1.4,1.05,1.97,.47,.57,1.03,1.01,1.69,1.34,.67,.32,1.43,.48,2.27,.48,1.09,0,2.02-.22,2.78-.67s1.42-1.04,1.99-1.79l1.87,1.49c-.39,.59-.89,1.15-1.49,1.69s-1.34,.97-2.22,1.3c-.87,.33-1.9,.5-3.09,.5Zm-14.56-9.18v-.35c0-.9-.09-1.75-.28-2.54-.19-.8-.48-1.5-.89-2.11-.39-.61-.89-1.09-1.5-1.44-.61-.36-1.34-.54-2.19-.54-.78,0-1.46,.13-2.04,.4-.57,.27-1.05,.63-1.45,1.09-.4,.45-.73,.96-.99,1.54-.25,.57-.43,1.16-.55,1.77v4.33c.22,.78,.54,1.52,.94,2.21,.4,.68,.94,1.23,1.61,1.66,.67,.41,1.51,.62,2.52,.62,.84,0,1.55-.17,2.16-.52,.61-.36,1.11-.84,1.5-1.45,.4-.61,.7-1.32,.89-2.11,.19-.8,.28-1.66,.28-2.56Zm3.11-.35v.35c0,1.32-.16,2.54-.47,3.66-.31,1.11-.77,2.08-1.37,2.91-.59,.82-1.32,1.47-2.19,1.92s-1.87,.69-2.99,.69-2.16-.19-3.04-.57-1.63-.93-2.24-1.66-1.1-1.59-1.47-2.61c-.36-1.01-.6-2.16-.74-3.43v-1.87c.13-1.34,.38-2.54,.75-3.59s.85-1.96,1.45-2.71c.61-.76,1.35-1.33,2.22-1.72,.87-.4,1.87-.6,3.01-.6s2.15,.22,3.03,.67c.88,.43,1.62,1.06,2.22,1.87s1.05,1.79,1.35,2.93c.31,1.13,.47,2.38,.47,3.76Zm-12.19-5.42v21.57h-3.11v-25.05h2.84l.27,3.48Zm-13.74,14.95c-1.26,0-2.4-.21-3.43-.64-1.01-.43-1.89-1.04-2.62-1.82-.72-.78-1.28-1.71-1.67-2.78s-.59-2.24-.59-3.51v-.7c0-1.47,.22-2.78,.65-3.93,.43-1.16,1.03-2.14,1.77-2.94s1.59-1.41,2.54-1.82,1.93-.62,2.94-.62c1.29,0,2.41,.22,3.34,.67,.95,.45,1.72,1.07,2.32,1.87,.6,.79,1.05,1.73,1.34,2.81,.29,1.07,.43,2.24,.43,3.51v1.39h-13.51v-2.52h10.42v-.23c-.04-.8-.21-1.58-.5-2.34-.28-.76-.72-1.38-1.34-1.87s-1.45-.74-2.51-.74c-.7,0-1.35,.15-1.94,.45-.59,.29-1.1,.72-1.52,1.3s-.75,1.29-.99,2.12-.35,1.8-.35,2.89v.7c0,.86,.12,1.67,.35,2.42,.25,.75,.6,1.4,1.05,1.97,.47,.57,1.03,1.01,1.69,1.34,.67,.32,1.43,.48,2.27,.48,1.09,0,2.02-.22,2.78-.67s1.42-1.04,1.99-1.79l1.87,1.49c-.39,.59-.89,1.15-1.49,1.69s-1.34,.97-2.22,1.3c-.87,.33-1.9,.5-3.09,.5Zm-13.91-.33l-5.92-11.04,3.36-.02,6,10.85v.2h-3.44Zm-14.23-24.34h8.06c1.83,0,3.37,.28,4.63,.84,1.27,.56,2.23,1.38,2.89,2.47,.67,1.08,1,2.41,1,4,0,1.11-.23,2.13-.69,3.06-.45,.91-1.09,1.69-1.94,2.34-.84,.64-1.84,1.11-3.01,1.42l-.9,.35h-7.57l-.03-2.62h5.72c1.16,0,2.12-.2,2.89-.6,.77-.41,1.35-.96,1.74-1.66s.59-1.45,.59-2.29c0-.94-.18-1.76-.55-2.46s-.95-1.24-1.74-1.62c-.78-.39-1.79-.59-3.03-.59h-4.83v21.7h-3.23v-24.34Z"/>
</svg>